<?xml version="1.0" ?><svg width="64px" height="64px" viewBox="0 0 64 64" data-name="Layer 1" id="Layer_1" xmlns="http://www.w3.org/2000/svg"><defs><style>.cls-1{fill:#ffb300;}.cls-2{fill:#0074ff;}</style></defs><title/><path class="cls-1" d="M38.75,53.57H25.25a2,2,0,0,1-2-2V37.86a2,2,0,0,1,2-2h13.5a2,2,0,0,1,2,2V51.57A2,2,0,0,1,38.75,53.57Zm-11.5-4h9.5V39.86h-9.5Z"/><path class="cls-2" d="M51.07,53.57H12.93a2,2,0,0,1-2-2V22.43A2,2,0,0,1,12,20.66l19.07-10a2,2,0,0,1,1.86,0L52,20.66a2,2,0,0,1,1.07,1.77V37.86a2,2,0,0,1-4,0V23.64L32,14.69l-17.07,9V49.57H49.07V47.75a2,2,0,0,1,4,0v3.82A2,2,0,0,1,51.07,53.57Z"/></svg>